<svg xmlns="http://www.w3.org/2000/svg" viewBox="0 0 32 32" width="32" height="32">
  <defs>
    <linearGradient id="grad" x1="0%" y1="0%" x2="100%" y2="100%">
      <stop offset="0%" style="stop-color:#0078D4;stop-opacity:1" />
      <stop offset="100%" style="stop-color:#106EBE;stop-opacity:1" />
    </linearGradient>
  </defs>
  
  <!-- Background circle -->
  <circle cx="16" cy="16" r="15" fill="url(#grad)" stroke="#0056B3" stroke-width="1"/>
  
  <!-- Server rack representation -->
  <rect x="8" y="6" width="16" height="20" rx="2" fill="#FFFFFF" opacity="0.9"/>
  
  <!-- Server slots -->
  <rect x="10" y="8" width="12" height="2" fill="#0078D4"/>
  <rect x="10" y="11" width="12" height="2" fill="#0078D4"/>
  <rect x="10" y="14" width="12" height="2" fill="#0078D4"/>
  <rect x="10" y="17" width="12" height="2" fill="#0078D4"/>
  <rect x="10" y="20" width="12" height="2" fill="#0078D4"/>
  <rect x="10" y="23" width="12" height="2" fill="#0078D4"/>
  
  <!-- Gear overlay -->
  <g transform="translate(20,20) scale(0.4)">
    <path d="M12,2L13.09,8.26L17,5L19.08,7.92L12.74,12.09L19,13L19,15L12.74,15.91L19.08,20.08L17,23L13.09,19.74L12,26L10,26L8.91,19.74L5,23L2.92,20.08L9.26,15.91L3,15L3,13L9.26,12.09L2.92,7.92L5,5L8.91,8.26L10,2Z" fill="#FFFFFF"/>
  </g>
</svg>
